<svg width="512" height="384" viewBox="0 0 512 384" fill="none" xmlns="http://www.w3.org/2000/svg">
<path d="M150.778 329.947C151.898 329.526 152.641 328.454 152.641 327.255V56.7293C152.641 55.5311 151.898 54.4585 150.778 54.0376L76.1297 25.992C74.2526 25.2868 72.25 26.6762 72.25 28.6838V355.286C72.25 357.294 74.2522 358.683 76.1292 357.978L150.778 329.947Z" fill="#1E293B"/>
<path d="M359.359 327.251C359.359 328.449 360.102 329.522 361.222 329.943L435.871 357.974C437.748 358.679 439.75 357.289 439.75 355.282V28.6808C439.75 26.6935 437.787 25.3119 435.927 25.9684L361.222 54.0381C360.101 54.4591 359.359 55.5317 359.359 56.7299V327.251Z" fill="#1E293B"/>
<path d="M234.493 207.815C248.359 213.022 263.641 213.022 277.507 207.815L439.75 146.888V24.535L277.507 85.4621C275.773 86.113 274.018 86.6825 272.246 87.1707C259.842 90.5878 246.626 90.0183 234.493 85.4621L72.25 24.535V146.888L234.493 207.815Z" fill="#475569"/>
<path d="M234.493 207.815C248.359 213.022 263.641 213.022 277.507 207.815L439.75 146.888V24.535L277.507 85.4621C275.773 86.113 274.018 86.6825 272.246 87.1707C259.842 90.5878 246.626 90.0183 234.493 85.4621L72.25 24.535V146.888L234.493 207.815Z" fill="url(#paint0_linear_67_3575)"/>
<path d="M234.493 207.815C248.359 213.022 263.641 213.022 277.507 207.815L439.75 146.888V24.535L277.507 85.4621C275.773 86.113 274.018 86.6825 272.246 87.1707C259.842 90.5878 246.626 90.0183 234.493 85.4621L72.25 24.535V146.888L234.493 207.815Z" fill="url(#paint1_linear_67_3575)"/>
<path d="M26.3125 8C27.5782 8 28.8336 8.22794 30.0188 8.67298L150.716 54H148.812C140.356 54 133.5 60.865 133.5 69.3333V314.667C133.5 323.135 140.356 330 148.812 330H150.727L30.0188 375.327C28.8336 375.772 27.5782 376 26.3125 376C17.8556 376 11 369.135 11 360.667V23.3333C11 14.865 17.8556 8 26.3125 8Z" fill="#64748B"/>
<path d="M361.273 330L481.981 375.327C483.166 375.772 484.422 376 485.687 376C494.144 376 501 369.135 501 360.667V23.3333C501 14.865 494.144 8 485.687 8C484.422 8 483.166 8.22794 481.981 8.67298L361.284 54H363.188C371.644 54 378.5 60.865 378.5 69.3333V314.667C378.5 323.135 371.644 330 363.188 330H361.273Z" fill="#64748B"/>
<defs>
<linearGradient id="paint0_linear_67_3575" x1="385.515" y1="135.937" x2="307.806" y2="135.937" gradientUnits="userSpaceOnUse">
<stop stop-opacity="0.3"/>
<stop offset="0.332974" stop-opacity="0.2"/>
<stop offset="0.66649" stop-opacity="0.1"/>
<stop offset="0.833191" stop-opacity="0.05"/>
<stop offset="1" stop-opacity="0"/>
</linearGradient>
<linearGradient id="paint1_linear_67_3575" x1="126.485" y1="135.937" x2="204.194" y2="135.937" gradientUnits="userSpaceOnUse">
<stop stop-opacity="0.3"/>
<stop offset="0.333402" stop-opacity="0.2"/>
<stop offset="0.666654" stop-opacity="0.1"/>
<stop offset="0.833486" stop-opacity="0.05"/>
<stop offset="1" stop-opacity="0"/>
</linearGradient>
</defs>
</svg>
