<svg width="512" height="512" viewBox="0 0 512 512" fill="none" xmlns="http://www.w3.org/2000/svg">
<path d="M150.778 393.947C151.898 393.526 152.641 392.454 152.641 391.255V120.729C152.641 119.531 151.898 118.458 150.778 118.038L76.1297 89.992C74.2526 89.2868 72.25 90.6762 72.25 92.6838V419.286C72.25 421.294 74.2522 422.683 76.1292 421.978L150.778 393.947Z" fill="#86198F"/>
<path d="M359.359 391.251C359.359 392.449 360.102 393.522 361.222 393.942L435.871 421.974C437.748 422.679 439.75 421.289 439.75 419.282V92.6808C439.75 90.6935 437.787 89.3119 435.927 89.9684L361.222 118.038C360.101 118.459 359.359 119.532 359.359 120.73V391.251Z" fill="#86198F"/>
<path d="M234.493 271.815C248.359 277.022 263.641 277.022 277.507 271.815L439.75 210.888V88.535L277.507 149.462C275.773 150.113 274.018 150.682 272.246 151.171C259.842 154.588 246.626 154.018 234.493 149.462L72.25 88.535V210.888L234.493 271.815Z" fill="#C026D3"/>
<path d="M234.493 271.815C248.359 277.022 263.641 277.022 277.507 271.815L439.75 210.888V88.535L277.507 149.462C275.773 150.113 274.018 150.682 272.246 151.171C259.842 154.588 246.626 154.018 234.493 149.462L72.25 88.535V210.888L234.493 271.815Z" fill="url(#paint0_linear_114_5131)"/>
<path d="M234.493 271.815C248.359 277.022 263.641 277.022 277.507 271.815L439.75 210.888V88.535L277.507 149.462C275.773 150.113 274.018 150.682 272.246 151.171C259.842 154.588 246.626 154.018 234.493 149.462L72.25 88.535V210.888L234.493 271.815Z" fill="url(#paint1_linear_114_5131)"/>
<path d="M26.3125 72C27.5782 72 28.8336 72.2279 30.0188 72.673L150.716 118H148.812C140.356 118 133.5 124.865 133.5 133.333V378.667C133.5 387.135 140.356 394 148.812 394H150.727L30.0188 439.327C28.8336 439.772 27.5782 440 26.3125 440C17.8556 440 11 433.135 11 424.667V87.3333C11 78.865 17.8556 72 26.3125 72Z" fill="#D946EF"/>
<path d="M361.273 394L481.981 439.327C483.166 439.772 484.422 440 485.687 440C494.144 440 501 433.135 501 424.667V87.3333C501 78.865 494.144 72 485.687 72C484.422 72 483.166 72.2279 481.981 72.673L361.284 118H363.188C371.644 118 378.5 124.865 378.5 133.333V378.667C378.5 387.135 371.644 394 363.188 394H361.273Z" fill="#D946EF"/>
<defs>
<linearGradient id="paint0_linear_114_5131" x1="385.515" y1="199.937" x2="307.806" y2="199.937" gradientUnits="userSpaceOnUse">
<stop stop-opacity="0.3"/>
<stop offset="0.332974" stop-opacity="0.2"/>
<stop offset="0.66649" stop-opacity="0.1"/>
<stop offset="0.833191" stop-opacity="0.05"/>
<stop offset="1" stop-opacity="0"/>
</linearGradient>
<linearGradient id="paint1_linear_114_5131" x1="126.485" y1="199.937" x2="204.194" y2="199.937" gradientUnits="userSpaceOnUse">
<stop stop-opacity="0.3"/>
<stop offset="0.333402" stop-opacity="0.2"/>
<stop offset="0.666654" stop-opacity="0.1"/>
<stop offset="0.833486" stop-opacity="0.05"/>
<stop offset="1" stop-opacity="0"/>
</linearGradient>
</defs>
</svg>
