<svg width="32" height="24" viewBox="0 0 32 24" fill="none" xmlns="http://www.w3.org/2000/svg">
<path d="M9.90625 4.49874C9.90625 4.11743 9.66713 3.77681 9.30225 3.64215C7.86159 3.1105 4.20008 1.75976 2.26668 1.0509C1.65379 0.826187 1 1.26916 1 1.90913L1 22.0743C1 22.7143 1.65379 23.1572 2.26668 22.9325C4.20007 22.2237 7.86159 20.8729 9.30225 20.3413C9.66713 20.2066 9.90625 19.866 9.90625 19.4847V4.49874Z" fill="#215B7C"/>
<path d="M22.0938 19.4847C22.0938 19.866 22.3329 20.2066 22.6977 20.3413C24.1384 20.8729 27.7999 22.2237 29.7333 22.9325C30.3462 23.1572 31 22.7143 31 22.0743V1.90996C31 1.26999 30.3462 0.827017 29.7333 1.05173C27.7999 1.76059 24.1384 3.11133 22.6977 3.64298C22.3329 3.77764 22.0938 4.11826 22.0938 4.49957V19.4847Z" fill="#215B7C"/>
<path d="M17.3167 5.60331L29.7333 1.0509C30.3462 0.826187 31 1.26916 31 1.90913V22.0735C31 22.7134 30.3462 23.1564 29.7333 22.9317L24.1083 20.8693C23.7424 20.7352 23.5 20.3932 23.5 20.0111V11.9917C23.5 11.3517 22.8462 10.9088 22.2333 11.1335L17.3167 12.9361C16.4678 13.2473 15.5322 13.2473 14.6833 12.9361L9.76668 11.1335C9.15379 10.9088 8.5 11.3517 8.5 11.9917V20.0111C8.5 20.3932 8.25759 20.7352 7.89168 20.8693L2.26668 22.9317C1.65379 23.1564 1 22.7134 1 22.0735V1.90913C1 1.26916 1.65379 0.826187 2.26668 1.0509L14.6833 5.60331C15.5322 5.91457 16.4678 5.91457 17.3167 5.60331Z" fill="#59A7D5"/>
</svg>
