<svg width="32" height="32" viewBox="0 0 32 32" fill="none" xmlns="http://www.w3.org/2000/svg">
<path d="M9.90625 8.49874C9.90625 8.11743 9.66713 7.77681 9.30225 7.64215C7.86159 7.1105 4.20008 5.75976 2.26668 5.0509C1.65379 4.82619 1 5.26916 1 5.90913L1 26.0743C1 26.7143 1.65379 27.1572 2.26668 26.9325C4.20007 26.2237 7.86159 24.8729 9.30225 24.3413C9.66713 24.2066 9.90625 23.866 9.90625 23.4847V8.49874Z" fill="#854D0E"/>
<path d="M22.0938 23.4847C22.0938 23.866 22.3329 24.2066 22.6977 24.3413C24.1384 24.8729 27.7999 26.2237 29.7333 26.9325C30.3462 27.1572 31 26.7143 31 26.0743V5.90996C31 5.26999 30.3462 4.82702 29.7333 5.05173C27.7999 5.76059 24.1384 7.11133 22.6977 7.64298C22.3329 7.77764 22.0938 8.11826 22.0938 8.49957V23.4847Z" fill="#854D0E"/>
<path d="M17.3167 9.60331L29.7333 5.0509C30.3462 4.82619 31 5.26916 31 5.90913V26.0735C31 26.7134 30.3462 27.1564 29.7333 26.9317L24.1083 24.8693C23.7424 24.7352 23.5 24.3932 23.5 24.0111V15.9917C23.5 15.3517 22.8462 14.9088 22.2333 15.1335L17.3167 16.9361C16.4678 17.2473 15.5322 17.2473 14.6833 16.9361L9.76668 15.1335C9.15379 14.9088 8.5 15.3517 8.5 15.9917V24.0111C8.5 24.3932 8.25759 24.7352 7.89168 24.8693L2.26668 26.9317C1.65379 27.1564 1 26.7134 1 26.0735V5.90913C1 5.26916 1.65379 4.82619 2.26668 5.0509L14.6833 9.60331C15.5322 9.91457 16.4678 9.91457 17.3167 9.60331Z" fill="#FACC15"/>
</svg>
