<svg width="32" height="24" viewBox="0 0 32 24" fill="none" xmlns="http://www.w3.org/2000/svg">
<g clip-path="url(#clip0_805_36172)">
<path d="M9.5 3.81681C9.5 3.40083 9.24494 3.02924 8.85573 2.88235C7.31903 2.30236 3.41341 0.828823 1.35112 0.0555222C0.697372 -0.189616 0 0.293628 0 0.991782L0 22.9901C0 23.6883 0.697374 24.1715 1.35113 23.9264C3.4134 23.1531 7.31903 21.6795 8.85573 21.0996C9.24494 20.9527 9.5 20.5811 9.5 20.1651V3.81681Z" fill="#155E75"/>
<path d="M22.5 20.1651C22.5 20.5811 22.7551 20.9527 23.1443 21.0996C24.681 21.6795 28.5866 23.1531 30.6489 23.9264C31.3026 24.1715 32 23.6883 32 22.9901V0.992687C32 0.294533 31.3026 -0.18871 30.6489 0.0564276C28.5866 0.82973 24.681 2.30327 23.1443 2.88325C22.7551 3.03015 22.5 3.40173 22.5 3.81771V20.1651Z" fill="#155E75"/>
<path d="M17.4045 5.02179L30.6489 0.0555224C31.3026 -0.189616 32 0.293627 32 0.991781V22.9892C32 23.6874 31.3026 24.1706 30.6489 23.9255L24.6489 21.6756C24.2586 21.5293 24 21.1562 24 20.7394V11.991C24 11.2928 23.3026 10.8096 22.6489 11.0547L17.4045 13.0212C16.499 13.3607 15.501 13.3607 14.5955 13.0212L9.35112 11.0547C8.69737 10.8096 8 11.2928 8 11.991V20.7394C8 21.1562 7.74143 21.5293 7.35112 21.6756L1.35112 23.9255C0.697372 24.1706 0 23.6874 0 22.9892V0.991781C0 0.293627 0.697373 -0.189616 1.35112 0.0555223L14.5955 5.02179C15.501 5.36134 16.499 5.36134 17.4045 5.02179Z" fill="#22D3EE"/>
</g>
<defs>
<clipPath id="clip0_805_36172">
<rect width="32" height="24" fill="white"/>
</clipPath>
</defs>
</svg>
